:SAMPLES-PER-SECOND 30
:FULLY-SPECIFIED
:DEGREES
48
root  62.609 39.1846 -4.85876 12.7478 -88.9542 -12.2097
RightUpLeg  8.71089 -10.0808 -4.4492
RightLeg  11.226 -12.1108 2.78595
RightFoot  -17.3656 -0.0446343 1.35411
RightToes  0.000482159 0.542163 -0.142577
Spine  9.44425 0.0934309 11.1698
Spine1  8.90366 2.52681 -5.87594
HEad  -2.33429 -0.0634652 -3.33737
LeftShoulder1  7.3713 -11.2654 -43.4128
LeftArm  -12.5168 14.7725 -22.7306
LeftForeArm  20.2704 -2.21702 -3.86077
LeftHand  -0.25398 0.0180481 5.50724
RightShoulder  5.22759 9.03343 35.7242
RightArm  -4.56702 4.40997 28.5112
RightForeArm  -7.9377 31.8147 7.43062
RightHand  -2.28657 6.36393 -22.7054
LeftUpLeg  -22.5391 15.0601 -3.95147
LeftLeg  21.1046 3.29658 1.73227
LeftFoot  -4.89899 0.0995069 -1.25166
LeftToes  1.06246e-005 4.65855e-005 -8.18504e-006
49
root  61.3688 38.9743 -4.90476 -28.8421 -88.6683 29.2314
RightUpLeg  9.85932 -13.0713 -6.12359
RightLeg  13.8304 -8.11021 1.44514
RightFoot  -18.9063 0.131104 3.81594
RightToes  0.000482159 0.542163 -0.142577
Spine  9.71363 0.544349 9.15368
Spine1  8.75135 3.12439 -6.63785
HEad  -2.70202 -0.896255 -1.8192
LeftShoulder1  7.48584 -11.555 -43.2286
LeftArm  -11.8149 14.6044 -21.6924
LeftForeArm  20.2857 -0.123426 -3.87874
LeftHand  -0.25398 0.0180481 5.50724
RightShoulder  5.34968 9.20365 36.1125
RightArm  -0.928888 3.46648 28.8564
RightForeArm  -8.74237 29.5014 6.87535
RightHand  -1.98978 5.37075 -21.5629
LeftUpLeg  -21.6728 15.152 -4.8141
LeftLeg  22.3295 3.34963 1.84296
LeftFoot  -4.86392 -0.0501621 1.45592
LeftToes  1.06246e-005 4.65855e-005 -8.18504e-006
50
root  60.1158 38.8324 -4.93597 -53.9898 -87.9023 53.943
RightUpLeg  9.72951 -16.5111 -7.94624
RightLeg  19.2691 -3.08928 -0.863029
RightFoot  -18.5168 0.423796 9.09316
RightToes  0.000482159 0.542163 -0.142577
Spine  10.3583 0.760259 6.5045
Spine1  9.1064 3.35488 -7.12915
HEad  -3.73467 -1.57991 0.0301763
LeftShoulder1  7.83253 -12.0166 -43.9239
LeftArm  -11.3608 13.9497 -20.6327
LeftForeArm  20.8933 -0.322219 -4.04859
LeftHand  -0.25398 0.0180481 5.50724
RightShoulder  5.82832 9.85138 37.6024
RightArm  3.64629 1.92821 29.0274
RightForeArm  -9.14085 25.9071 6.00769
RightHand  -1.60544 4.21143 -19.5921
LeftUpLeg  -20.051 14.6827 -5.24846
LeftLeg  24.4234 3.57703 2.1116
LeftFoot  -6.56317 -0.0571438 2.26014
LeftToes  1.06246e-005 4.65855e-005 -8.18504e-006
51
root  58.8813 38.8579 -4.92325 -63.8013 -87.2995 63.2296
RightUpLeg  5.96724 -13.8698 -8.24558
RightLeg  30.0603 -5.16736 -3.64044
RightFoot  -13.0119 0.108746 12.5377
RightToes  0.000482159 0.542163 -0.142577
Spine  11.5658 0.695872 4.31085
Spine1  9.40662 3.27533 -7.47102
HEad  -5.51989 -2.00377 1.68507
LeftShoulder1  8.26567 -12.53 -44.9188
LeftArm  -11.0691 12.1861 -20.4009
LeftForeArm  21.421 -1.05373 -4.33958
LeftHand  -0.25398 0.0180481 5.50724
RightShoulder  6.47785 10.6625 39.6099
RightArm  8.66695 -0.462635 29.408
RightForeArm  -10.469 22.333 5.55271
RightHand  -1.50813 3.88807 -19.0394
LeftUpLeg  -17.4489 14.3269 -5.22331
LeftLeg  25.0906 4.09248 2.42638
LeftFoot  -9.01243 0.0237934 1.44605
LeftToes  1.06246e-005 4.65855e-005 -8.18504e-006
52
root  57.7053 38.9436 -4.87136 -73.48 -86.9034 72.7407
RightUpLeg  -1.70565 -11.3813 -8.35264
RightLeg  44.5292 -6.17986 -6.68255
RightFoot  -2.24389 -0.767087 10.0276
RightToes  0.000482159 0.542163 -0.142577
Spine  13.3852 0.528204 2.26153
Spine1  8.80008 2.87895 -7.34685
HEad  -7.70642 -1.97162 2.66891
LeftShoulder1  8.67621 -13.0155 -45.7977
LeftArm  -10.8956 9.36123 -21.2536
LeftForeArm  21.7105 -1.1486 -4.65676
LeftHand  -0.25398 0.0180481 5.50724
RightShoulder  6.94688 11.1361 41.2431
RightArm  12.4636 -3.96556 30.376
RightForeArm  -10.8901 19.7294 6.25143
RightHand  -1.46958 3.43313 -19.4741
LeftUpLeg  -14.8554 14.8905 -5.22981
LeftLeg  24.673 4.19797 2.44443
LeftFoot  -11.2486 0.0680431 0.534941
LeftToes  1.06246e-005 4.65855e-005 -8.18504e-006
53
root  56.6229 38.8896 -4.82183 -80.5743 -86.1902 80.1131
RightUpLeg  -11.0312 -9.69913 -8.60832
RightLeg  57.0303 -4.06134 -7.08036
RightFoot  6.44015 -0.775594 5.06086
RightToes  0.000482159 0.542163 -0.142577
Spine  15.636 0.279501 -0.508759
Spine1  7.66337 1.96152 -6.64165
HEad  -10.4218 -1.31065 3.03252
LeftShoulder1  9.10304 -13.4857 -46.7483
LeftArm  -10.7946 5.76716 -22.41
LeftForeArm  22.203 -1.25241 -4.97545
LeftHand  -0.25398 0.0180481 5.50724
RightShoulder  7.09245 11.1267 42.1983
RightArm  15.8588 -8.54152 31.9884
RightForeArm  -10.0009 18.7315 6.81997
RightHand  -1.32606 2.57772 -19.4179
LeftUpLeg  -13.29 15.8236 -5.70347
LeftLeg  24.8985 3.65638 2.1962
LeftFoot  -13.4025 0.0810223 0.0367689
LeftToes  1.06246e-005 4.65855e-005 -8.18504e-006
54
root  55.554 38.8207 -4.77735 -75.2144 -85.5077 75.0254
RightUpLeg  -19.3454 -9.02025 -8.3293
RightLeg  64.3759 -2.20046 -5.67152
RightFoot  7.05482 -0.430195 2.93281
RightToes  0.000482159 0.542163 -0.142577
Spine  18.2824 -0.400555 -3.10868
Spine1  6.74624 0.35938 -5.24039
HEad  -14.0424 -0.221513 3.22526
LeftShoulder1  9.52942 -13.9267 -47.7217
LeftArm  -10.9154 1.46262 -23.439
LeftForeArm  23.4004 -2.35851 -5.24633
LeftHand  -0.25398 0.0180481 5.50724
RightShoulder  7.09381 10.96 42.7245
RightArm  19.7884 -14.2136 33.7428
RightForeArm  -8.95514 19.6051 6.46613
RightHand  -1.23838 2.14718 -19.1617
LeftUpLeg  -11.7854 15.6632 -5.92235
LeftLeg  25.1628 3.096 1.93562
LeftFoot  -15.2005 0.0658404 -0.748481
LeftToes  1.06246e-005 4.65855e-005 -8.18504e-006
55
root  54.4621 38.8431 -4.74098 -62.285 -85.131 62.1609
RightUpLeg  -25.9257 -9.20766 -7.05657
RightLeg  65.5842 -2.12449 -5.75561
RightFoot  2.9585 -0.431033 3.6326
RightToes  0.000482159 0.542163 -0.142577
Spine  21.6144 -1.33051 -5.06209
Spine1  5.8673 -1.70587 -2.79157
HEad  -18.4985 1.17925 3.52596
LeftShoulder1  9.82915 -14.2727 -48.2724
LeftArm  -11.3632 -3.26973 -24.7219
LeftForeArm  25.4985 -4.71498 -5.47006
LeftHand  -0.25398 0.0180481 5.50724
RightShoulder  7.12056 10.9537 42.9164
RightArm  24.4538 -21.4075 34.8346
RightForeArm  -9.10762 22.4293 5.68402
RightHand  -1.17057 1.70595 -19.2129
LeftUpLeg  -9.76641 14.2107 -5.46212
LeftLeg  24.8764 3.12487 1.92753
LeftFoot  -16.4998 0.0162975 -1.83624
LeftToes  1.06246e-005 4.65855e-005 -8.18504e-006
56
root  53.3379 38.7852 -4.74625 -53.1619 -84.6553 53.2561
RightUpLeg  -31.4631 -9.31217 -5.32778
RightLeg  61.6533 -3.36712 -7.24061
RightFoot  -0.0328297 -0.423061 4.23462
RightToes  0.000482159 0.542163 -0.142577
Spine  25.288 -1.78457 -7.67447
Spine1  4.40825 -3.82713 0.894539
HEad  -23.0769 3.18333 3.53686
LeftShoulder1  9.99668 -14.5456 -48.3532
LeftArm  -10.939 -7.37107 -26.2918
LeftForeArm  27.673 -8.95329 -5.63974
LeftHand  -0.25398 0.0180481 5.50724
RightShoulder  7.10043 11.0366 42.5276
RightArm  27.7685 -30.0134 34.5476
RightForeArm  -8.13053 26.3448 6.02859
RightHand  -1.01894 0.813232 -19.0823
LeftUpLeg  -8.18746 12.6089 -5.08898
LeftLeg  25.2342 3.69095 2.24432
LeftFoot  -18.3976 -0.0405813 -2.46108
LeftToes  1.06246e-005 4.65855e-005 -8.18504e-006
57
root  52.104 38.5982 -4.7471 -48.9104 -84.1213 49.6613
RightUpLeg  -35.9185 -9.29784 -3.48677
RightLeg  54.324 -4.97961 -7.8392
RightFoot  -0.693598 -0.275556 2.90294
RightToes  0.000482159 0.542163 -0.142577
Spine  28.336 -1.92392 -10.7828
Spine1  2.58795 -5.94787 5.62766
HEad  -27.1462 5.898 2.76524
LeftShoulder1  10.1156 -14.8274 -48.1748
LeftArm  -6.90071 -9.79583 -27.7892
LeftForeArm  27.6382 -16.4314 -4.90261
LeftHand  -0.25398 0.0180481 5.50724
RightShoulder  6.92581 10.998 41.5249
RightArm  30.312 -38.9144 32.7258
RightForeArm  -6.348 29.9541 6.8628
RightHand  -1.1423 1.51949 -19.2378
LeftUpLeg  -7.08723 11.063 -5.1028
LeftLeg  26.0081 4.45887 2.71642
LeftFoot  -21.1894 -0.121205 -2.86563
LeftToes  1.06246e-005 4.65855e-005 -8.18504e-006
58
root  50.7033 38.3184 -4.66954 -46.4174 -83.3473 48.0145
RightUpLeg  -38.7695 -9.9683 -1.91278
RightLeg  45.5371 -5.81099 -6.64168
RightFoot  -1.38712 -0.263634 2.94845
RightToes  0.000482159 0.542163 -0.142577
Spine  30.3537 -2.39331 -13.2605
Spine1  1.13356 -8.1497 10.3507
HEad  -30.5597 8.93619 1.19996
LeftShoulder1  10.1279 -15.0739 -47.5848
LeftArm  -3.28769 -10.8216 -29.1461
LeftForeArm  29.5165 -26.3589 -3.84334
LeftHand  -0.25398 0.0180481 5.50724
RightShoulder  6.61717 10.807 40.095
RightArm  30.5859 -47.2916 29.9699
RightForeArm  -4.20497 32.4317 7.39508
RightHand  -1.8391 4.89599 -20.8404
LeftUpLeg  -5.73964 9.05138 -5.58046
LeftLeg  26.534 5.30682 3.2282
LeftFoot  -23.8999 -0.273203 -3.78073
LeftToes  1.06246e-005 4.65855e-005 -8.18504e-006
